<svg width="77" height="77" viewBox="0 0 77 77" fill="none" xmlns="http://www.w3.org/2000/svg">
<g clip-path="url(#clip0_3585_10467)">
<path fill-rule="evenodd" clip-rule="evenodd" d="M68.718 0H8.58976C3.84577 0 0 3.84576 0 8.58976V68.718C0 73.462 3.84576 77.3078 8.58976 77.3078H68.718C73.462 77.3078 77.3078 73.462 77.3078 68.718V8.58976C77.3078 3.84577 73.462 0 68.718 0ZM17.2034 40.6449C16.6698 27.9489 25.1151 17.8806 37.9088 17.2098C54.597 16.3359 65.4587 34.54 57.4243 49.1192C53.1495 56.8796 43.5328 61.7107 34.7564 59.5998C32.8086 59.1307 31.2473 58.0916 29.6147 57.005L29.5003 56.9289C29.0955 57.4704 28.5681 57.9074 28.0161 58.2828C26.3969 59.409 23.4347 60.6398 21.5027 59.9075C20.2654 59.4371 20.2469 58.2902 20.2287 57.1565C20.2237 56.8516 20.2188 56.5476 20.1902 56.2581C19.9506 53.862 19.3604 51.5675 18.7657 49.2558C18.0513 46.4791 17.3306 43.6775 17.2034 40.6449ZM32.2113 48.2603C31.764 48.6596 31.309 49.0659 30.8128 49.3408C29.7027 49.9377 29.3592 49.3162 28.9422 48.3315C27.6297 45.199 27.4702 39.8633 28.2369 36.5832C29.2672 32.1214 32.7079 28.195 37.4365 27.7765C42.2204 27.3519 46.6607 29.789 48.6663 34.1892C53.1066 43.9805 41.742 53.6487 32.941 47.6422V47.6361C32.6965 47.8271 32.455 48.0427 32.2113 48.2603Z" fill="#0870F3"/>
</g>
<defs>
<clipPath id="clip0_3585_10467">
<rect width="77" height="77" rx="8.58976" fill="white"/>
</clipPath>
</defs>
</svg>
