<svg width="77" height="77" viewBox="0 0 77 77" fill="none" xmlns="http://www.w3.org/2000/svg">
<path fill-rule="evenodd" clip-rule="evenodd" d="M68.4444 0H8.55556C3.83045 0 0 3.83045 0 8.55555V68.4444C0 73.1695 3.83045 77 8.55555 77H68.4444C73.1695 77 77 73.1695 77 68.4444V8.55556C77 3.83045 73.1695 0 68.4444 0ZM17.1349 40.4831C16.6035 27.8376 25.0151 17.8094 37.7578 17.1413C54.3796 16.2709 65.1981 34.4025 57.1957 48.9236C52.9379 56.6532 43.3595 61.465 34.618 59.3625C32.6779 58.8953 31.1229 57.8603 29.4968 56.7781L29.3828 56.7022C28.9797 57.2416 28.4543 57.6768 27.9045 58.0507C26.2918 59.1725 23.3413 60.3984 21.4171 59.669C20.1848 59.2004 20.1663 58.0581 20.1481 56.929C20.1432 56.6252 20.1383 56.3225 20.1098 56.0341C19.8712 53.6475 19.2833 51.3622 18.6909 49.0597C17.9795 46.294 17.2616 43.5036 17.1349 40.4831ZM32.083 48.0682C31.6376 48.4659 31.1843 48.8706 30.6901 49.1443C29.5844 49.7389 29.2423 49.1198 28.8269 48.139C27.5197 45.019 27.3609 39.7046 28.1244 36.4375C29.1507 31.9935 32.5777 28.0828 37.2875 27.6659C42.0522 27.243 46.4749 29.6703 48.4725 34.0531C52.8952 43.8054 41.5758 53.4351 32.8098 47.4525V47.4464C32.5663 47.6367 32.3258 47.8514 32.083 48.0682Z" fill="#DCFF5C"/>
</svg>
