<svg width="77" height="77" viewBox="0 0 77 77" fill="none" xmlns="http://www.w3.org/2000/svg">
<path fill-rule="evenodd" clip-rule="evenodd" d="M8.55556 0C3.83045 0 0 3.83045 0 8.55555V68.4444C0 73.1695 3.83045 77 8.55555 77H68.4444C73.1695 77 77 73.1695 77 68.4444V8.55556C77 3.83045 73.1695 0 68.4444 0H8.55556ZM52.3505 20.6704C53.9823 20.1837 54.7942 20.9631 54.7541 23.492C54.6871 24.0397 54.6159 24.6316 54.5409 25.2546C54.3616 26.745 54.161 28.4131 53.945 30.0781C52.9671 37.6196 51.9813 45.1596 50.9888 52.6981C50.9764 52.793 50.9645 52.8881 50.9526 52.9832C50.8615 53.7086 50.77 54.4379 50.4673 55.1041C49.9844 56.1681 49.2355 56.6208 48.2442 56.4203C47.102 56.1891 46.0721 55.6102 45.125 54.8421C44.2887 54.1636 43.4465 53.4952 42.6042 52.8268C40.3212 51.0149 38.0375 49.2025 35.8693 47.1873C35.6058 46.9416 35.3489 46.6796 35.1162 46.3933C34.39 45.4976 34.3512 44.4045 35.0948 43.5394C36.305 42.1298 37.5264 40.735 38.7478 39.3401C39.7095 38.2419 40.6712 37.1436 41.6273 36.0382C42.7726 34.712 43.8984 33.3611 45.0237 32.0108C45.1141 31.9023 45.2045 31.7938 45.2949 31.6853C45.5812 31.3426 45.7645 30.9011 45.9289 30.4596C46.0306 30.1896 46.1188 29.8921 45.925 29.6253C45.7297 29.3568 45.4809 29.4313 45.2416 29.5137C44.4136 29.7966 43.706 30.3642 43.0038 30.9334C41.9436 31.7937 40.8813 32.6506 39.819 33.5074C36.7523 35.9812 33.6853 38.4551 30.6663 41.0121C29.088 42.3477 27.4816 42.5709 25.7308 42.0211C23.6615 41.371 21.6419 40.5172 19.6262 39.6603C18.6766 39.2577 18.5522 38.1095 19.3386 37.322C19.9368 36.724 20.6487 36.3845 21.3571 36.0468C21.5182 35.9699 21.6791 35.8932 21.8385 35.8135C31.6768 30.8948 41.519 25.9891 51.3614 21.0833L51.528 21.0003C51.7941 20.8677 52.0709 20.7544 52.3505 20.6704Z" fill="#DCFF5C"/>
</svg>
