<svg width="78" height="77" viewBox="0 0 78 77" fill="none" xmlns="http://www.w3.org/2000/svg">
<g clip-path="url(#clip0_3585_10465)">
<path fill-rule="evenodd" clip-rule="evenodd" d="M8.58976 -0.307861C3.84577 -0.307861 0 3.5379 0 8.28189V68.4102C0 73.1542 3.84576 76.9999 8.58976 76.9999H68.718C73.462 76.9999 77.3078 73.1542 77.3078 68.4102V8.28189C77.3078 3.5379 73.462 -0.307861 68.718 -0.307861H8.58976ZM42.2512 31.8728H42.2608C42.2608 32.359 42.2603 32.8453 42.2597 33.3313C42.2586 34.4 42.2575 35.4681 42.2618 36.534C42.262 36.5596 42.262 36.5854 42.2621 36.6112C42.2637 37.1023 42.2654 37.6336 42.7723 37.8918C43.3479 38.1858 43.831 37.8205 44.251 37.4735C45.1075 36.7644 45.8495 35.9396 46.4906 35.0277C48.0839 32.7593 49.5036 30.3856 50.5866 27.8242C51.477 25.716 51.7957 25.4612 54.0827 25.4878C54.506 25.4927 54.9298 25.484 55.3537 25.4753C56.3135 25.4556 57.2737 25.436 58.2294 25.5737C59.0618 25.6936 59.3775 26.1661 59.1871 26.9866C58.8471 28.4526 58.1114 29.7424 57.3706 31.0247C55.9245 33.5289 54.3154 35.929 52.6892 38.3164C52.2462 38.967 52.261 39.5573 52.763 40.1994C53.2435 40.8141 53.7923 41.3585 54.3408 41.9027C54.5899 42.1498 54.8389 42.3969 55.0815 42.6505C56.5928 44.229 58.0199 45.8777 59.2523 47.6875C59.6164 48.2215 59.9164 48.8127 60.0742 49.455C60.2795 50.2916 59.8911 50.9209 59.0714 51.1258C58.7956 51.1949 58.5199 51.2171 58.2377 51.2171C57.857 51.2162 57.4763 51.2125 57.0955 51.2087C56.1259 51.1992 55.1564 51.1896 54.1891 51.2278C52.9683 51.2755 52.0769 50.7299 51.3043 49.8626L51.2243 49.7728L51.2215 49.7697C49.762 48.132 48.3015 46.4931 46.6221 45.0752C46.0054 44.554 45.3539 44.0762 44.6078 43.7482C44.3331 43.6272 44.0563 43.521 43.7562 43.4892C42.7459 43.3798 42.268 43.7981 42.2618 44.8225C42.2574 45.6177 42.2582 46.4128 42.2591 47.208C42.2598 47.9149 42.2606 48.6217 42.2576 49.3286C42.2535 50.3901 41.9177 50.8043 40.8906 51.0081C38.3004 51.5218 35.8367 51.0081 33.4497 50.0124C29.4001 48.3223 26.4754 45.3215 24.0453 41.745C22.2888 39.1603 20.7058 36.4735 19.3799 33.6436C18.5126 31.7921 17.7832 29.8762 17.3244 27.872C17.2338 27.4792 17.1939 27.0683 17.1802 26.6651C17.1655 26.2213 17.3845 25.8869 17.7907 25.6979C18.1126 25.5482 18.4536 25.4846 18.8116 25.4856C19.5429 25.4882 20.2742 25.4875 21.0056 25.4867C21.7466 25.4859 22.4876 25.4851 23.2286 25.4878C24.4504 25.492 24.9618 25.8773 25.3839 27.0269C26.6564 30.4972 28.076 33.8962 30.1724 36.9608C30.7598 37.8185 31.3533 38.6741 32.1363 39.3716C32.1625 39.3947 32.1884 39.4183 32.2143 39.4419C32.2927 39.5133 32.3711 39.5847 32.4573 39.6454C33.4383 40.3365 34.0538 40.0806 34.2285 38.9023C34.2676 38.6412 34.2759 38.3748 34.2759 38.1104C34.2778 37.193 34.2774 36.2755 34.277 35.3579C34.2765 34.1901 34.276 33.0223 34.2801 31.8549C34.2855 30.2339 33.9486 28.7393 32.8278 27.4973C32.4889 27.1215 32.2342 26.6714 32.4984 26.147C32.7699 25.6077 33.274 25.4802 33.8329 25.4813C34.8478 25.4832 35.863 25.4828 36.8783 25.4825C38.1591 25.482 39.4401 25.4815 40.721 25.4856C41.7841 25.4887 42.2354 25.9283 42.247 26.9951C42.2588 28.1327 42.2562 29.2698 42.2535 30.4071C42.2524 30.8956 42.2512 31.3842 42.2512 31.8728Z" fill="#0870F3"/>
</g>
<defs>
<clipPath id="clip0_3585_10465">
<rect width="78" height="77" rx="8.58976" fill="white"/>
</clipPath>
</defs>
</svg>
