<svg width="77" height="77" viewBox="0 0 77 77" fill="none" xmlns="http://www.w3.org/2000/svg">
<path fill-rule="evenodd" clip-rule="evenodd" d="M8.55556 0C3.83045 0 0 3.83045 0 8.55555V68.4444C0 73.1695 3.83045 77 8.55555 77H68.4444C73.1695 77 77 73.1695 77 68.4444V8.55556C77 3.83045 73.1695 0 68.4444 0H8.55556ZM42.083 32.0525H42.0925C42.0925 32.5368 42.092 33.0211 42.0915 33.5053C42.0904 34.5697 42.0892 35.6335 42.0935 36.6952C42.0937 36.7207 42.0938 36.7463 42.0938 36.7721C42.0954 37.2612 42.0971 37.7904 42.602 38.0475C43.1753 38.3404 43.6565 37.9766 44.0748 37.6309C44.9279 36.9247 45.667 36.1032 46.3055 35.1948C47.8925 32.9355 49.3065 30.5712 50.3852 28.0201C51.272 25.9203 51.5895 25.6665 53.8674 25.693C54.289 25.6978 54.7111 25.6892 55.1333 25.6805C56.0893 25.6609 57.0457 25.6413 57.9975 25.7785C58.8266 25.8979 59.141 26.3686 58.9514 27.1858C58.6128 28.646 57.88 29.9306 57.1422 31.2078C55.7019 33.702 54.0991 36.0926 52.4795 38.4705C52.0382 39.1185 52.0529 39.7064 52.5529 40.346C53.0315 40.9583 53.5781 41.5005 54.1244 42.0425C54.3725 42.2886 54.6206 42.5347 54.8622 42.7873C56.3675 44.3596 57.7889 46.0017 59.0164 47.8043C59.379 48.3362 59.6779 48.925 59.835 49.5648C60.0395 50.398 59.6526 51.0248 58.8362 51.2289C58.5615 51.2977 58.2869 51.3198 58.0058 51.3198C57.6267 51.319 57.2474 51.3152 56.8682 51.3115C55.9024 51.3019 54.9368 51.2924 53.9733 51.3304C52.7574 51.378 51.8695 50.8346 51.1 49.9707L51.0203 49.8812L51.0176 49.8781C49.5639 48.2469 48.1092 46.6146 46.4365 45.2023C45.8222 44.6832 45.1734 44.2074 44.4301 43.8806C44.1565 43.7601 43.8809 43.6544 43.582 43.6227C42.5757 43.5137 42.0997 43.9303 42.0935 44.9507C42.0891 45.7427 42.09 46.5347 42.0908 47.3267C42.0916 48.0307 42.0923 48.7348 42.0894 49.4389C42.0852 50.4961 41.7508 50.9086 40.7277 51.1116C38.1479 51.6233 35.694 51.1116 33.3166 50.1199C29.283 48.4365 26.37 45.4476 23.9495 41.8855C22.2 39.3111 20.6234 36.6349 19.3027 33.8162C18.4389 31.9722 17.7124 30.0639 17.2554 28.0676C17.1652 27.6764 17.1255 27.2672 17.1118 26.8655C17.0971 26.4235 17.3152 26.0905 17.7199 25.9023C18.0405 25.7531 18.3801 25.6897 18.7367 25.6908C19.4651 25.6934 20.1935 25.6926 20.922 25.6918C21.66 25.691 22.3981 25.6902 23.1361 25.693C24.3531 25.6971 24.8625 26.0809 25.2828 27.2259C26.5502 30.6824 27.9642 34.0679 30.0523 37.1203C30.6374 37.9746 31.2285 38.8267 32.0083 39.5214C32.0344 39.5445 32.0602 39.568 32.086 39.5915C32.1641 39.6626 32.2422 39.7338 32.3281 39.7941C33.3052 40.4825 33.9182 40.2277 34.0923 39.054C34.1311 38.7939 34.1394 38.5286 34.1394 38.2653C34.1413 37.3516 34.1409 36.4377 34.1405 35.5237C34.14 34.3606 34.1395 33.1975 34.1436 32.0347C34.149 30.4201 33.8135 28.9315 32.6971 27.6944C32.3595 27.3201 32.1058 26.8718 32.3691 26.3495C32.6394 25.8124 33.1415 25.6854 33.6982 25.6865C34.7091 25.6884 35.7202 25.688 36.7315 25.6876C38.0072 25.6872 39.283 25.6867 40.5589 25.6908C41.6177 25.6939 42.0673 26.1317 42.0788 27.1942C42.0906 28.3273 42.0879 29.4599 42.0853 30.5927C42.0841 31.0792 42.083 31.5658 42.083 32.0525Z" fill="#DCFF5C"/>
</svg>
