<svg width="270" height="38" viewBox="0 0 270 38" fill="none" xmlns="http://www.w3.org/2000/svg">
<path d="M2.43855 17.0382L11.0077 8.64627H8.56919L0 17.0382H2.43855Z" fill="#0870F3"/>
<path d="M7.98071 17.0382L16.5499 8.64627H14.1113L5.54216 17.0382H7.98071Z" fill="#0870F3"/>
<path fill-rule="evenodd" clip-rule="evenodd" d="M22.3137 8.64627H19.8752L11.306 17.0382H13.7445L22.3137 8.64627Z" fill="#0870F3"/>
<path d="M110.019 8.64627H88.3725H25.2534L16.6842 17.0382H88.3725H110.019L110.02 19.0632C110.02 19.2443 110.218 19.3561 110.374 19.263L120.746 13.0493C120.897 12.9588 120.897 12.7402 120.746 12.6497L110.374 6.43603C110.218 6.34285 110.02 6.45471 110.02 6.63581L110.019 8.64627Z" fill="#0870F3"/>
<path d="M72.0962 3.10938H65.2393V8.63036H72.0962V3.10938Z" fill="#282631"/>
<path fill-rule="evenodd" clip-rule="evenodd" d="M65.2393 20.9348H72.0962V17.0222H65.2393V20.9348Z" fill="#282631"/>
<path d="M65.2394 31.156H42.8989V3.10938H49.9771V24.8473H65.2394H72.0964V31.156V33.806V38.002L67.8937 33.806L65.2394 31.156Z" fill="#282631"/>
<path d="M30.6115 3.13257L2.52002 31.1791H10.7042L19.3307 22.5664H32.8234V24.8705V31.1791H39.9016V21.0205V17.0454H32.8234H24.6393L33.0446 8.65355H39.9016V3.13257H30.6115Z" fill="#282631"/>
<path d="M83.0342 31.1791H75.7349V17.0454H93.8727C96.1937 17.0454 98.0753 15.1669 98.0753 12.8495C98.0753 10.5321 96.1937 8.65355 93.8727 8.65355H75.7349V3.13257H95.5316C100.968 3.13257 105.375 7.53242 105.375 12.9599C105.375 18.3874 100.968 22.7873 95.5316 22.7873H83.0342V31.1791Z" fill="#282631"/>
<path d="M143.522 10.3787L142.354 8.1404H136.49L135.322 10.3787H134.401L138.767 2.13229H140.101L144.466 10.3787H143.522ZM136.856 7.44535H141.988L139.416 2.55639L136.856 7.44535Z" fill="#8B8B8B"/>
<path d="M153.697 2.13229H154.593V10.3787H153.697V6.55002H146.865V10.3787H145.968V2.13229H146.865V5.81962H153.697V2.13229Z" fill="#8B8B8B"/>
<path d="M165.22 10.3787L164.052 8.1404H158.188L157.019 10.3787H156.099L160.465 2.13229H161.798L166.164 10.3787H165.22ZM158.553 7.44535H163.686L161.114 2.55639L158.553 7.44535Z" fill="#8B8B8B"/>
<path d="M169.07 2.13229H176.15V10.3787H175.253V2.87447H169.872C169.856 3.24359 169.833 3.76194 169.801 4.42951C169.762 5.27771 169.731 5.89423 169.707 6.27907C169.683 6.6639 169.64 7.1469 169.577 7.72808C169.514 8.3014 169.436 8.7098 169.341 8.95326C169.247 9.19673 169.117 9.45983 168.952 9.74256C168.795 10.0253 168.594 10.2138 168.35 10.308C168.114 10.4023 167.831 10.4494 167.501 10.4494C167.241 10.4494 166.989 10.4337 166.745 10.4023V9.67188C166.966 9.69544 167.147 9.70722 167.288 9.70722C167.973 9.70722 168.405 9.30668 168.586 8.5056C168.775 7.70452 168.909 6.22409 168.987 4.06431C169.003 3.78943 169.011 3.57738 169.011 3.42816C169.019 3.27108 169.027 3.07081 169.034 2.82735C169.05 2.57603 169.062 2.34434 169.07 2.13229Z" fill="#8B8B8B"/>
<path d="M185.989 2.13229H187.358V10.3787H186.473V2.70954L179.924 10.3787H178.543V2.13229H179.428V9.80147L185.989 2.13229Z" fill="#8B8B8B"/>
<path d="M188.917 2.87447V2.13229H197.319V2.87447H193.566V10.3787H192.67V2.87447H188.917Z" fill="#8B8B8B"/>
<path d="M206.315 2.13229H207.684V10.3787H206.799V2.70954L200.25 10.3787H198.87V2.13229H199.755V9.80147L206.315 2.13229Z" fill="#8B8B8B"/>
<path d="M217.02 2.13229H217.916V10.3787H217.02V6.70317C215.863 6.97019 214.676 7.10371 213.456 7.10371C212.205 7.10371 211.273 6.90344 210.66 6.5029C210.054 6.0945 209.751 5.4662 209.751 4.618V2.13229H210.648V4.46485C210.648 5.14813 210.892 5.63899 211.38 5.93743C211.867 6.22802 212.646 6.37331 213.716 6.37331C214.888 6.37331 215.989 6.23194 217.02 5.94921V2.13229Z" fill="#8B8B8B"/>
<path d="M220.314 10.3787V2.13229H227.653V2.85091H221.211V5.84318H226.343V6.52646H221.211V9.6601H227.889V10.3787H220.314Z" fill="#8B8B8B"/>
<path d="M236.965 7.64562L237.815 7.70452C237.673 8.54487 237.225 9.22422 236.47 9.74256C235.715 10.2609 234.696 10.5201 233.414 10.5201C231.848 10.5201 230.637 10.1235 229.78 9.33024C228.922 8.53701 228.493 7.5121 228.493 6.2555C228.493 4.99891 228.914 3.97399 229.756 3.18076C230.598 2.38754 231.782 1.99092 233.308 1.99092C234.503 1.99092 235.498 2.23046 236.293 2.70954C237.095 3.18862 237.575 3.83655 237.732 4.65334L236.883 4.72402C236.757 4.11929 236.36 3.63628 235.691 3.27501C235.03 2.90588 234.236 2.72132 233.308 2.72132C232.08 2.72132 231.121 3.0551 230.429 3.72267C229.736 4.39024 229.39 5.23452 229.39 6.2555C229.39 7.27649 229.74 8.12077 230.44 8.78833C231.148 9.4559 232.14 9.78969 233.414 9.78969C234.413 9.78969 235.223 9.58942 235.845 9.18888C236.474 8.78048 236.847 8.26606 236.965 7.64562Z" fill="#8B8B8B"/>
<path d="M248.42 10.3787H247.204L242.886 6.55002H240.408V10.3787H239.511V2.13229H240.408V5.85496H242.886L246.98 2.13229H248.101L243.617 6.1377L248.42 10.3787Z" fill="#8B8B8B"/>
<path d="M257.419 2.13229H258.788V10.3787H257.903V2.70954L251.354 10.3787H249.974V2.13229H250.859V9.80147L257.419 2.13229Z" fill="#8B8B8B"/>
<path d="M265.599 1.42545C264.206 1.42545 263.483 0.950302 263.428 0H264.053C264.14 0.604738 264.655 0.907107 265.599 0.907107C266.551 0.907107 267.07 0.604738 267.156 0H267.782C267.727 0.950302 266.999 1.42545 265.599 1.42545ZM268.631 2.13229H270V10.3787H269.115V2.70954L262.566 10.3787H261.186V2.13229H262.071V9.80147L268.631 2.13229Z" fill="#8B8B8B"/>
<path d="M135.286 21.2531V13.0067H136.183V20.5109H142.944V13.0067H143.841V20.5109H144.808V23.1969H143.994V21.2531H135.286Z" fill="#8B8B8B"/>
<path d="M146.245 21.2531V13.0067H153.584V13.7253H147.141V16.7176H152.274V17.4009H147.141V20.5345H153.82V21.2531H146.245Z" fill="#8B8B8B"/>
<path d="M163.341 13.0067H164.238V21.2531H163.341V17.4244H156.51V21.2531H155.613V13.0067H156.51V16.694H163.341V13.0067Z" fill="#8B8B8B"/>
<path d="M165.791 13.7489V13.0067H174.192V13.7489H170.44V21.2531H169.543V13.7489H165.791Z" fill="#8B8B8B"/>
<path d="M181.006 13.0067C181.887 13.0067 182.583 13.2227 183.094 13.6546C183.606 14.0787 183.861 14.6835 183.861 15.4688C183.861 16.2621 183.606 16.8668 183.094 17.2831C182.591 17.6993 181.895 17.9074 181.006 17.9074H176.64V21.2531H175.743V13.0067H181.006ZM180.947 17.2006C181.568 17.2006 182.06 17.0514 182.422 16.7529C182.784 16.4545 182.965 16.0265 182.965 15.4688C182.965 14.9112 182.784 14.4871 182.422 14.1965C182.06 13.8981 181.568 13.7489 180.947 13.7489H176.64V17.2006H180.947Z" fill="#8B8B8B"/>
<path d="M140.549 23.8811C141.43 23.8811 142.126 24.0971 142.637 24.529C143.149 24.9531 143.404 25.5579 143.404 26.3433C143.404 27.1365 143.149 27.7412 142.637 28.1575C142.134 28.5737 141.438 28.7818 140.549 28.7818H136.183V32.1275H135.286V23.8811H140.549ZM140.49 28.075C141.111 28.075 141.603 27.9258 141.965 27.6273C142.327 27.3289 142.508 26.9009 142.508 26.3433C142.508 25.7856 142.327 25.3615 141.965 25.0709C141.603 24.7725 141.111 24.6233 140.49 24.6233H136.183V28.075H140.49Z" fill="#8B8B8B"/>
<path d="M152.107 32.1275L150.939 29.8892H145.074L143.906 32.1275H142.986L147.352 23.8811H148.685L153.051 32.1275H152.107ZM145.44 29.1942H150.573L148.001 24.3052L145.44 29.1942Z" fill="#8B8B8B"/>
<path d="M159.076 27.9101C160.051 27.9808 160.795 28.1967 161.306 28.558C161.817 28.9114 162.073 29.3944 162.073 30.007C162.073 30.7374 161.715 31.299 160.999 31.6917C160.283 32.0765 159.273 32.2689 157.967 32.2689C155.292 32.2689 153.853 31.4246 153.648 29.7361L154.474 29.7007C154.553 30.3055 154.887 30.7688 155.477 31.0908C156.075 31.405 156.905 31.5621 157.967 31.5621C158.966 31.5621 159.749 31.4246 160.315 31.1497C160.889 30.867 161.176 30.4547 161.176 29.9128C161.176 29.3866 160.901 28.9821 160.35 28.6994C159.808 28.4166 159.029 28.2753 158.014 28.2753H156.339V27.592H158.108C158.989 27.592 159.674 27.4546 160.162 27.1797C160.649 26.9048 160.893 26.5239 160.893 26.037C160.893 25.5265 160.634 25.1338 160.114 24.8589C159.595 24.584 158.895 24.4466 158.014 24.4466C157.109 24.4466 156.35 24.5919 155.737 24.8825C155.131 25.1652 154.789 25.5971 154.71 26.1783L153.872 26.1312C153.975 25.338 154.403 24.7411 155.159 24.3406C155.914 23.94 156.866 23.7397 158.014 23.7397C159.17 23.7397 160.087 23.9282 160.763 24.3052C161.448 24.6743 161.79 25.2005 161.79 25.8838C161.79 26.4571 161.558 26.9205 161.094 27.2739C160.637 27.6195 159.965 27.8315 159.076 27.9101Z" fill="#8B8B8B"/>
<path d="M170.045 27.8983C170.784 27.969 171.359 28.1771 171.768 28.5227C172.177 28.8682 172.381 29.3434 172.381 29.9481C172.381 30.6392 172.11 31.1772 171.567 31.5621C171.032 31.939 170.285 32.1275 169.325 32.1275H163.909V23.8811H169.337C170.155 23.8811 170.816 24.0735 171.319 24.4584C171.831 24.8432 172.086 25.3537 172.086 25.9898C172.086 26.516 171.897 26.9441 171.52 27.2739C171.142 27.6038 170.651 27.8119 170.045 27.8983ZM164.806 24.5879V27.592H169.29C169.825 27.592 170.273 27.4585 170.635 27.1915C171.005 26.9166 171.19 26.5475 171.19 26.0841C171.19 25.6129 171.009 25.2477 170.647 24.9885C170.285 24.7215 169.833 24.5879 169.29 24.5879H164.806ZM169.231 31.4207C169.931 31.4207 170.482 31.2911 170.883 31.0319C171.284 30.7728 171.485 30.3722 171.485 29.8303C171.485 28.8015 170.773 28.2871 169.349 28.2871H164.806V31.4207H169.231Z" fill="#8B8B8B"/>
<path d="M181.668 23.8811H183.036V32.1275H182.152V24.4584L175.603 32.1275H174.222V23.8811H175.107V31.5503L181.668 23.8811Z" fill="#8B8B8B"/>
<path d="M184.596 24.6233V23.8811H192.998V24.6233H189.245V32.1275H188.349V24.6233H184.596Z" fill="#8B8B8B"/>
<path d="M201.994 23.8811H203.363V32.1275H202.478V24.4584L195.929 32.1275H194.549V23.8811H195.434V31.5503L201.994 23.8811Z" fill="#8B8B8B"/>
<path d="M205.76 32.1275V23.8811H213.1V24.5997H206.657V27.592H211.79V28.2753H206.657V31.4089H213.336V32.1275H205.76Z" fill="#8B8B8B"/>
<rect x="124.11" y="3.13062" width="0.907651" height="31.717" fill="#8B8B8B"/>
</svg>
