<svg width="94" height="94" viewBox="0 0 94 94" fill="none" xmlns="http://www.w3.org/2000/svg">
<path d="M51.0524 68.7515L80.8889 59.1517L63.5204 32.6138L51.0524 68.7515Z" class="elSvgPath" fill="#A8D307"/>
<path d="M51.0524 68.7515L53.9732 82.1824L80.8889 59.1517L51.0524 68.7515Z" class="elSvgPath"  fill="#9FC900"/>
<path d="M20.1054 70.053L53.9732 82.1824L51.0524 68.7515L20.1054 70.053Z" class="elSvgPath"  fill="#B6E212"/>
<path d="M26.3842 40.028L20.1054 70.053L51.0524 68.7515L26.3842 40.028Z" class="elSvgPath"  fill="#D4F853"/>
<path d="M26.3842 40.028L51.0524 68.7515L63.5204 32.6138L26.3842 40.028Z" class="elSvgPath"  fill="#BFEF0A"/>
<path d="M20.1054 70.053L26.3842 40.028L13 35.4445L20.1054 70.053Z" class="elSvgPath"  fill="#E5FF8B"/>
<path d="M26.3842 40.028L40.5478 12L13 35.4445L26.3842 40.028Z" class="elSvgPath"  fill="#F2FFC3"/>
<path d="M40.5478 12L26.3842 40.028L63.5204 32.6138L40.5478 12Z" class="elSvgPath"  fill="#E5FF8B"/>
<path d="M74.705 23.4888L40.5478 12L63.5204 32.6138L74.705 23.4888Z" class="elSvgPath"  fill="#D4F853"/>
<path d="M80.8889 59.1517L74.705 23.4888L63.5204 32.6138L80.8889 59.1517Z" class="elSvgPath"  fill="#BFEF0A"/>
</svg>
