<svg width="94" height="94" viewBox="0 0 94 94" fill="none" xmlns="http://www.w3.org/2000/svg">
<path d="M59.6625 43.7822L47.0062 86L74.0906 80.0792L87 39.4059L59.6625 43.7822Z"  class="elSvgPath" fill="#A8D307"/>
<path d="M11.8219 66.9505L47.0062 86L59.6625 43.7822L42.45 34.2574L38.2406 47.6436L35.6156 55.3663L18.6562 45.8416L11.8219 66.9505Z" class="elSvgPath"  fill="#E5FF8B"/>
<path d="M59.6625 43.7822L87 39.4059L51.0562 20.099L42.1969 21.6436L41.404 24.2178L55.1062 31.9406L42.45 34.2574L59.6625 43.7822Z" class="elSvgPath"  fill="#D4F853"/>
<path d="M42.45 34.2574L55.1062 31.9406L41.404 24.2178L36.8812 38.6337L32.8312 39.3663L31.5656 43.5248L38.2406 47.6436L42.45 34.2574Z" class="elSvgPath"  fill="#BFEF0A"/>
<path d="M18.6562 45.8416L35.6156 55.3663L38.2406 47.6436L31.5656 43.5248L18.6562 45.8416Z" class="elSvgPath"  fill="#A8D307"/>
<path d="M30.3 19.8416L23.4656 40.9505L32.8312 39.3663L36.8812 38.6337L41.404 24.2178L42.1969 21.6436L43.4655 17.5248L30.3 19.8416Z" class="elSvgPath"  fill="#A8D307"/>
<path d="M23.4656 40.9505L30.3 19.8416L12.5812 10.3168L6 31.4257L23.4656 40.9505Z" class="elSvgPath"  fill="#E5FF8B"/>
<path d="M30.3 19.8416L43.4655 17.5248L25.9969 8L12.5812 10.3168L30.3 19.8416Z" class="elSvgPath"  fill="#D4F853"/>
</svg>
