<svg width="94" height="94" viewBox="0 0 94 94" fill="none" xmlns="http://www.w3.org/2000/svg">
<path d="M83 54.8198V40.1802L55.8549 56.2393V70.606L83 54.8198Z" class="elSvgPath"  fill="#E5FF8B"/>
<path d="M83 40.1802L55.7178 24.3144L49.5456 27.9038L43.4617 31.4419L58.2208 40.0251L46.0194 47.4711L43.4617 49.032L55.8549 56.2393L83 40.1802Z" class="elSvgPath"  fill="#BFEF0A"/>
<path d="M43.4617 31.4419V38.888V45.968L46.0194 47.4711L58.2208 40.0251L43.4617 31.4419Z" class="elSvgPath"  fill="#A8D307"/>
<path d="M55.8549 56.2393L43.4617 49.032V56.0681L49.7709 59.7372V66.9406L55.8549 70.606V56.2393Z" class="elSvgPath"  fill="#A8D307"/>
<path d="M49.7709 59.7372L43.4617 56.0681L37.3777 52.5501L34.8991 54.0254V68.3859L49.7709 59.7372Z"  class="elSvgPath" fill="#BFEF0A"/>
<path d="M22.5059 90L49.7709 74.1441V66.9406V59.7372L34.8991 68.3859V54.0254V51.0748L22.5059 58.1108V90Z"  class="elSvgPath" fill="#E5FF8B"/>
<path d="M10 82.7272L22.5059 90V58.1108L10 50.8478V82.7272Z" class="elSvgPath"  fill="#A8D307"/>
<path d="M28.7025 47.4711L22.5059 51.0748L15.9713 47.339L10 50.8478L22.5059 58.1108L34.8991 51.0748L28.7025 47.4711Z" fill="#BFEF0A"/>
<path d="M22.5059 33.7774V51.0748L28.7025 47.4711L34.7998 43.9252V40.9269L22.5059 33.7774Z"  class="elSvgPath" fill="#E5FF8B"/>
<path d="M37.3777 42.4261V27.8011L10 12.2728V43.9252L15.9713 47.339L22.5059 51.0748V33.7774L34.7998 40.9269L37.3777 42.4261Z"  class="elSvgPath" fill="#A8D307"/>
<path d="M43.4617 38.888V31.4419L49.5456 27.9038V20.7249L37.3777 27.8011V42.4261L43.4617 38.888Z"  class="elSvgPath" fill="#E5FF8B"/>
<path d="M22.5059 5L10 12.2728L37.3777 27.8011L49.5456 20.7249L22.5059 5Z" class="elSvgPath"  fill="#BFEF0A"/>
</svg>
