<svg width="94" height="94" viewBox="0 0 94 94" fill="none" xmlns="http://www.w3.org/2000/svg">
<path d="M63.041 75.8819L52.3276 69.533L52.2853 89L63.041 82.5811V75.8819Z" fill="#A8D307"/>
<path d="M30.8383 76.1725L52.2853 89L52.3276 69.533L47.2331 66.5065L30.8383 76.1725Z" fill="#BFEF0A"/>
<path d="M63.041 75.8819V63.2847L41.3128 50.3981V62.9952L47.2331 66.5065L52.3276 69.533L63.041 75.8819Z" fill="#D4F853"/>
<path d="M63.041 75.8819L85 63.4442V50.2092L63.041 63.2847V75.8819Z" fill="#A8D307"/>
<path d="M63.041 63.2847L85 50.2092L79.7017 47.1026L63.1163 37.3782L63.1648 43.8603L52.3691 50.3981L47.052 47.0494L41.3128 50.3981L63.041 63.2847Z" fill="#E5FF8B"/>
<path d="M79.5245 21.3542L68.3962 28.0458L63.0698 31.17L63.1163 37.3782L79.7017 47.1026L79.5245 21.3542Z" fill="#A8D307"/>
<path d="M68.3962 28.0458L79.5245 21.3542L68.305 15.1002L62.9726 18.1876L63.0698 31.17L68.3962 28.0458Z" fill="#DCFF5C"/>
<path d="M62.97 17.8401L52.4253 24.5049L52.3691 50.3981L63.1648 43.8603L63.1163 37.3782L63.0698 31.17L62.9726 18.1876L62.97 17.8401Z" fill="#BFEF0A"/>
<path d="M62.97 17.8401L41.5018 5L30.3342 11.6648L52.4253 24.5049L62.97 17.8401Z" fill="#E5FF8B"/>
<path d="M52.4253 24.5049L30.3342 11.6648L30.5277 37.5014L35.8389 34.3519L47.052 40.5653V47.0494L52.3691 50.3981L52.4253 24.5049Z" fill="#D4F853"/>
<path d="M14.2988 47.1247L25.2069 53.3786L30.6228 50.2019L47.052 40.5653L35.8389 34.3519L30.5277 37.5014L25.0472 40.7512L14.6066 46.9423L14.2988 47.1247Z" fill="#DCFF5C"/>
<path d="M25.2069 53.3786L25.3858 79.3872L30.8383 76.1725L47.2331 66.5065L41.3128 62.9952V50.3981L47.052 47.0494V40.5653L30.6228 50.2019L25.2069 53.3786Z" fill="#A8D307"/>
<path d="M14.2988 47.1247L14.4777 72.8144L25.3858 79.3872L25.2069 53.3786L14.2988 47.1247Z" fill="#BFEF0A"/>
<path d="M9 31.2338V43.8309L14.6066 46.9423L25.0472 40.7512L9 31.2338Z" fill="#BFEF0A"/>
<path d="M30.3827 18.1488L9 31.2338L25.0472 40.7512L30.5277 37.5014L30.3827 18.1488Z" fill="#E5FF8B"/>
</svg>
