<svg width="94" height="94" viewBox="0 0 94 94" fill="none" xmlns="http://www.w3.org/2000/svg">
<path d="M42.5403 88L44.2207 52.5248L40.3595 50.1791L36.4982 47.8334L32.7579 45.5611L29.3053 43.4637L25.4211 41.104L22.4421 39.2943L6 62.1206L10.8912 65.5847L17.2211 70.0678L23.1193 74.2452L29.3053 78.6263L35.9228 83.3132L42.5403 88Z" fill="#E5FF8B"/>
<path d="M44.2207 52.5248L71.1886 41.7659L58.5088 34.8763L44.7855 40.6028L34.4842 34.6952L22.4421 39.2943L25.4211 41.104L29.3053 43.4637L32.7579 45.5611L36.4982 47.8334L40.3595 50.1791L44.2207 52.5248Z" fill="#A8D307"/>
<path d="M46.4246 6L28.3068 31.1525L34.4842 34.6952L44.7855 40.6028L46.4246 6Z" fill="#E5FF8B"/>
<path d="M46.4246 6L44.7855 40.6028L58.5088 34.8763L64.6453 32.3156L46.4246 6Z" fill="#BFEF0A"/>
<path d="M42.5403 88L88 66.0461L71.1886 41.7659L44.2207 52.5248L42.5403 88Z" fill="#BFEF0A"/>
</svg>
