<svg width="94" height="94" viewBox="0 0 94 94" fill="none" xmlns="http://www.w3.org/2000/svg">
<path d="M40.552 19C29.78 19 21.0476 27.7419 21.0476 38.5256C21.0476 42.0405 21.9754 45.3385 23.5991 48.1875C24.5259 49.8138 25.6795 51.2938 27.0168 52.5844C27.8005 53.3407 28.6473 54.032 29.5484 54.6495C31.9289 56.2807 34.6889 57.3973 37.6686 57.8393C41.1615 56.5127 45.0923 54.5713 49.0823 52.1167C52.9263 49.7519 56.321 47.221 59.0325 44.7854C59.6964 42.8203 60.0564 40.7151 60.0564 38.5256C60.0564 37.666 60.0009 36.8193 59.8933 35.9891C59.5043 32.987 58.4342 30.199 56.8432 27.7853C53.3542 22.4924 47.3605 19 40.552 19Z" fill="url(#paint0_linear_3789_9688)"/>
<path d="M11.897 73.6415C15.4608 79.4472 34.5856 74.1656 54.6134 61.8448C65.4169 55.1986 74.2764 47.8617 79.5861 41.602C84.1197 36.2572 86.0655 31.6977 84.4241 29.0238L82.1647 25.2021C82.5395 25.8608 82.7051 26.6291 82.6755 27.4914C82.4413 34.3205 69.9691 47.0441 52.2923 57.9187C34.4941 68.8679 17.4091 74.2579 11.3245 71.2478C10.5622 70.8707 9.97263 70.3618 9.57587 69.7154L11.2218 72.4995L11.897 73.6415Z" fill="#A8D307"/>
<path d="M25.3112 58.4986C25.6904 59.1162 26.3706 59.5186 27.2986 59.7199C27.2517 58.3722 28.0591 56.6165 29.5484 54.6495C28.6473 54.032 27.8005 53.3407 27.0168 52.5844C25.189 55.0723 24.5005 57.1777 25.3112 58.4986Z" fill="#A8D307"/>
<path fill-rule="evenodd" clip-rule="evenodd" d="M25.3112 58.4986C25.6904 59.1162 26.3706 59.5186 27.2986 59.7199C29.5503 60.2084 33.2607 59.5134 37.6686 57.8393C41.1615 56.5127 45.0923 54.5713 49.0823 52.1167C52.9263 49.7519 56.321 47.221 59.0325 44.7854C62.5311 41.6426 64.8921 38.6586 65.6126 36.3948C65.9461 35.3468 65.9281 34.4532 65.5085 33.7697C64.674 32.4102 62.3379 32.0664 59.1548 32.6405C58.6075 30.9048 57.8244 29.2739 56.8432 27.7853C69.5265 22.3974 79.613 21.0413 82.103 25.0977L82.1647 25.2021C82.5395 25.8608 82.7051 26.6291 82.6755 27.4914C82.4413 34.3205 69.9691 47.0441 52.2923 57.9187C34.4941 68.8679 17.4091 74.2579 11.3245 71.2478C10.5622 70.8707 9.97263 70.3618 9.57587 69.7154C7.06884 65.6313 12.9303 57.1485 23.5991 48.1875C24.5259 49.8138 25.6795 51.2938 27.0168 52.5844C25.189 55.0723 24.5005 57.1777 25.3112 58.4986Z" fill="#DCFF5C"/>
<path d="M65.6126 36.3948C65.9461 35.3468 65.9281 34.4532 65.5085 33.7697C64.674 32.4102 62.3379 32.0664 59.1548 32.6405C59.495 33.7192 59.7442 34.8384 59.8933 35.9891C62.4543 35.525 64.4603 35.6347 65.6126 36.3948Z" fill="#A8D307"/>
<defs>
<linearGradient id="paint0_linear_3789_9688" x1="47" y1="19" x2="47" y2="76" gradientUnits="userSpaceOnUse">
<stop stop-color="#DCFF5C"/>
<stop offset="1" stop-color="#8EB400"/>
</linearGradient>
</defs>
</svg>
