<svg width="94" height="94" viewBox="0 0 94 94" fill="none" xmlns="http://www.w3.org/2000/svg">
<path d="M81.9296 20.5544L71.3957 57.2667C71.096 58.3114 70.1406 59.0313 69.0538 59.0313H67.7773C67.0922 59.0313 66.4866 59.4765 66.2823 60.1305L62.6118 71.877C62.4979 72.2416 62.0623 72.3482 61.7909 72.1332L64.3193 75.8253C64.5922 76.1311 65.0949 76.0175 65.2099 75.624L68.8337 64.0638C69.0723 63.2474 69.8208 62.6863 70.6713 62.6863H72.0762C73.163 62.6863 74.1184 61.9664 74.4182 60.9217L84.952 24.2094C85.0533 23.8565 84.9886 23.5042 84.8121 23.2244L81.7169 19.4662C81.9469 19.7594 82.0437 20.1565 81.9296 20.5544Z" fill="#A8D307"/>
<path d="M11.2835 62.4372C11.4386 62.5899 11.6518 62.6863 11.8931 62.6863H55.7933L54.0497 59.9238C53.699 59.3682 53.0879 59.0313 52.4309 59.0313H8.87069C8.62679 59.0313 8.41153 58.9328 8.25605 58.7772L11.2835 62.4372Z" fill="#A8D307"/>
<path d="M65.7195 43.1928H20.7604C20.4548 43.1928 20.185 43.3921 20.0951 43.6843L19.0619 47.0424C19.0112 47.2073 19.0459 47.3732 19.136 47.4993C19.2294 47.63 19.3822 47.7181 19.5609 47.7181H64.4129C64.6421 47.7181 64.8445 47.5686 64.9119 47.3495L66.0522 43.6433C66.0792 43.5555 66.0699 43.4674 66.0345 43.3926L65.9755 43.3049C65.9127 43.2367 65.8226 43.1928 65.7195 43.1928Z" fill="#E5FF8B"/>
<path d="M65.26 47.8716L66.4003 44.1654C66.4358 44.05 66.4085 43.9338 66.3416 43.8484L66.0345 43.3926C66.0699 43.4674 66.0792 43.5555 66.0522 43.6433L64.9119 47.3495C64.8445 47.5686 64.6421 47.7181 64.4129 47.7181H19.5609C19.3822 47.7181 19.2294 47.63 19.136 47.4993L19.509 48.0537C19.6034 48.1664 19.7453 48.2402 19.909 48.2402H64.761C64.9902 48.2402 65.1926 48.0907 65.26 47.8716Z" fill="#A8D307"/>
<path d="M69.7117 29.0948H24.7526C24.447 29.0948 24.1772 29.2942 24.0873 29.5863L23.0541 32.9444C23.0034 33.1093 23.0381 33.2752 23.1282 33.4014C23.2216 33.5321 23.3744 33.6201 23.5531 33.6201H68.4051C68.6343 33.6201 68.8367 33.4706 68.9041 33.2515L70.0444 29.5453C70.0714 29.4576 70.0621 29.3694 70.0267 29.2946L69.9677 29.207C69.9049 29.1387 69.8148 29.0948 69.7117 29.0948Z" fill="#E5FF8B"/>
<path fill-rule="evenodd" clip-rule="evenodd" d="M80.7586 19L20.9064 19C19.8972 19 19.0101 19.6684 18.7317 20.6385L8.03429 57.921C7.95885 58.1839 8.01237 58.4464 8.15092 58.6501L8.25605 58.7772C8.41153 58.9328 8.62679 59.0313 8.87069 59.0313H52.4309C53.0879 59.0313 53.699 59.3682 54.0497 59.9238L55.7933 62.6863L61.672 72L61.7909 72.1332C62.0623 72.3482 62.4979 72.2416 62.6118 71.877L66.2823 60.1305C66.4866 59.4765 67.0922 59.0313 67.7773 59.0313H69.0538C70.1406 59.0313 71.096 58.3114 71.3957 57.2667L81.9296 20.5544C82.0437 20.1565 81.9469 19.7594 81.7169 19.4662L81.6795 19.4208C81.459 19.1657 81.1329 19 80.7586 19ZM65.7195 43.1928H20.7604C20.4548 43.1928 20.185 43.3921 20.0951 43.6843L19.0619 47.0424C19.0112 47.2073 19.0459 47.3732 19.136 47.4993L19.509 48.0537C19.6034 48.1664 19.7453 48.2402 19.909 48.2402H64.761C64.9902 48.2402 65.1926 48.0907 65.26 47.8716L66.4003 44.1654C66.4358 44.05 66.4085 43.9338 66.3416 43.8484L66.0345 43.3926L65.9755 43.3049C65.9127 43.2367 65.8226 43.1928 65.7195 43.1928ZM69.7117 29.0948H24.7526C24.447 29.0948 24.1772 29.2942 24.0873 29.5863L23.0541 32.9444C23.0034 33.1093 23.0381 33.2752 23.1282 33.4014L23.5012 33.9557C23.5956 34.0685 23.7375 34.1423 23.9012 34.1423H68.7532C68.9824 34.1423 69.1848 33.9928 69.2522 33.7737L70.3925 30.0675C70.428 29.952 70.4007 29.8359 70.3338 29.7504L70.0267 29.2946L69.9677 29.207C69.9049 29.1387 69.8148 29.0948 69.7117 29.0948Z" fill="#D4F853"/>
<path d="M69.2522 33.7737L70.3925 30.0675C70.428 29.952 70.4007 29.8359 70.3338 29.7504L70.0267 29.2946C70.0621 29.3694 70.0714 29.4576 70.0444 29.5453L68.9041 33.2515C68.8367 33.4706 68.6343 33.6201 68.4051 33.6201H23.5531C23.3744 33.6201 23.2216 33.5321 23.1282 33.4014L23.5012 33.9557C23.5956 34.0685 23.7375 34.1423 23.9012 34.1423H68.7532C68.9824 34.1423 69.1848 33.9928 69.2522 33.7737Z" fill="#A8D307"/>
</svg>
