<svg width="25" height="25" viewBox="0 0 25 25" fill="none" xmlns="http://www.w3.org/2000/svg">
<path d="M5.23811 21.572C4.79084 21.5792 4.3622 21.4894 3.9491 21.2918C2.67251 20.6739 1.90842 19.1901 2.03887 17.6344C2.18175 15.9494 3.20364 14.6704 4.61379 14.3758C5.21948 14.2501 5.80963 14.3291 6.38114 14.6022C6.52402 14.6704 6.64205 14.6381 6.70728 14.5159C6.79425 14.3543 6.73834 14.1782 6.56751 14.0956C6.05501 13.8477 5.52076 13.7184 4.96789 13.7723C3.6416 13.8944 2.63834 14.6201 1.98296 15.9674C1.91463 16.1075 1.86183 16.2548 1.79971 16.4021C1.10084 16.1039 0.259101 15.1267 0.0509956 13.7974C-0.194383 12.231 0.482738 10.8442 1.29031 10.2262C1.40213 10.3448 1.50774 10.4598 1.61955 10.5711C2.78122 11.7388 4.07955 12.0082 5.51455 11.3615C5.5891 11.3292 5.66364 11.2466 5.70402 11.1639C5.75061 11.0705 5.71955 10.9592 5.64811 10.8837C5.57046 10.7975 5.48038 10.7939 5.37788 10.8298C5.11387 10.9268 4.84985 11.0454 4.57652 11.0993C3.00486 11.4118 1.45183 10.2334 1.05425 8.43706C0.594557 6.34969 1.78107 4.26232 3.61364 3.93898C4.14167 3.84557 4.65728 3.90664 5.16046 4.11502C5.25364 4.15454 5.29091 4.20843 5.30645 4.31981C5.50523 5.61318 6.1047 6.58681 7.0769 7.25506C7.61425 7.62511 8.2075 7.79037 8.82871 7.80834C8.98712 7.81193 9.10205 7.69337 9.10515 7.5317C9.10826 7.36643 8.99333 7.25146 8.82561 7.24787C7.37197 7.21554 6.15751 6.09461 5.81584 4.46711C5.37478 2.35818 6.64516 0.263625 8.50879 0.0229129C10.2637 -0.203428 11.8323 1.27318 11.9876 3.29947C11.9969 3.40366 11.9969 3.50426 11.9969 3.60845C11.9969 9.4538 11.9938 15.3028 12 21.1481C12 21.7732 11.941 22.3768 11.6956 22.9373C11.1117 24.2522 10.1798 24.9743 8.90015 24.9995C7.36576 25.0282 6.1016 23.8175 5.79099 22.0822C5.44001 20.1098 6.60788 18.1338 8.31311 17.8033C8.48394 17.7709 8.66099 17.7602 8.83493 17.7494C8.99644 17.7386 9.10826 17.6308 9.10826 17.4692C9.10826 17.3039 8.98712 17.1853 8.82561 17.1889C7.05205 17.232 5.57046 18.7194 5.30023 20.7421C5.25985 21.008 5.25675 21.281 5.23811 21.572ZM10.2358 12.7663C10.6364 12.7663 11.034 12.7663 11.4347 12.7663C11.5962 12.7663 11.6956 12.6621 11.6956 12.4968C11.6957 12.4936 11.6957 12.4904 11.6957 12.4872C11.695 12.3205 11.5962 12.2202 11.4316 12.2202C10.6395 12.2202 9.85061 12.2202 9.05856 12.2202C8.89083 12.2202 8.78523 12.3244 8.78212 12.4897C8.78209 12.4914 8.78207 12.4932 8.78206 12.495C8.78132 12.6608 8.88956 12.7699 9.06167 12.7699C9.45303 12.7663 9.84439 12.7663 10.2358 12.7663ZM10.7358 9.76996C10.9657 9.76996 11.1924 9.76996 11.4223 9.76996C11.5838 9.76996 11.6894 9.66936 11.6956 9.51128C11.7018 9.33883 11.6117 9.21668 11.4471 9.21309C11.2121 9.20949 10.9771 9.20769 10.742 9.2077C10.5081 9.20771 10.2741 9.20951 10.0401 9.21309C9.88477 9.21668 9.78227 9.34243 9.78538 9.49691C9.78849 9.6514 9.90341 9.76637 10.0649 9.76996C10.2855 9.77355 10.5122 9.76996 10.7358 9.76996ZM10.7389 15.2165C10.5153 15.2165 10.2886 15.2165 10.0649 15.2165C9.90341 15.2165 9.78849 15.3279 9.78227 15.4824C9.77606 15.6405 9.88167 15.7698 10.0463 15.7734C10.5122 15.7806 10.975 15.7806 11.4409 15.7734C11.6055 15.7698 11.7018 15.6476 11.6956 15.4788C11.6894 15.3207 11.5869 15.2165 11.4254 15.2165C11.1955 15.2129 10.9688 15.2165 10.7389 15.2165ZM11.1427 7.10416C11.2421 7.10416 11.3446 7.10776 11.444 7.10416C11.5869 7.10057 11.6863 6.99279 11.6925 6.84549C11.6986 6.6858 11.6169 6.56117 11.4712 6.5512C11.4694 6.55108 11.4676 6.55097 11.4658 6.55088C11.2483 6.54011 11.0309 6.54011 10.8166 6.55088C10.6768 6.55807 10.5836 6.68741 10.5867 6.83471C10.5898 6.9892 10.6923 7.10057 10.8414 7.10416C10.9408 7.10776 11.0433 7.10416 11.1427 7.10416ZM11.1489 17.8823C11.0527 17.8823 10.9564 17.8823 10.8601 17.8823C10.857 17.8823 10.8539 17.8823 10.8477 17.8823C10.6986 17.8895 10.5961 17.9937 10.5898 18.1482C10.5836 18.2955 10.6706 18.4248 10.8135 18.432C10.8166 18.4322 10.8197 18.4324 10.8228 18.4326C11.0402 18.4464 11.2576 18.4462 11.4751 18.432C11.4805 18.4316 11.4858 18.4311 11.4911 18.4304C11.5147 18.4273 11.5364 18.4211 11.5562 18.4124C11.6529 18.3695 11.7031 18.2631 11.6956 18.1338C11.6863 17.9865 11.5869 17.8859 11.4409 17.8823C11.4072 17.8811 11.3739 17.8807 11.3407 17.8807C11.2965 17.8807 11.2526 17.8815 11.2089 17.882C11.2055 17.882 11.202 17.882 11.1985 17.8821C11.196 17.8821 11.1936 17.8821 11.1911 17.8821C11.177 17.8822 11.163 17.8823 11.1489 17.8823Z" fill="#0870F3"/>
<path fill-rule="evenodd" clip-rule="evenodd" d="M11.6956 15.4788C11.7018 15.6476 11.6086 15.7698 11.4409 15.7734C11.6055 15.7698 11.7018 15.6476 11.6956 15.4788ZM9.78227 15.4824C9.78849 15.3243 9.90341 15.2165 10.0649 15.2165C9.90341 15.2165 9.78849 15.3279 9.78227 15.4824ZM10.7389 15.2165H10.0649C10.2141 15.2141 10.3647 15.2149 10.5148 15.2157C10.5897 15.2161 10.6645 15.2165 10.7389 15.2165Z" fill="white"/>
<path fill-rule="evenodd" clip-rule="evenodd" d="M11.6957 12.4872C11.6964 12.3184 11.5973 12.2166 11.4316 12.2166H9.05856C8.89083 12.2166 8.78523 12.3244 8.78212 12.4861C8.78207 12.489 8.78205 12.492 8.78206 12.495C8.78207 12.4932 8.78209 12.4914 8.78212 12.4897C8.78523 12.3244 8.89083 12.2202 9.05856 12.2202H11.4316C11.5962 12.2202 11.695 12.3205 11.6957 12.4872Z" fill="white"/>
<path fill-rule="evenodd" clip-rule="evenodd" d="M10.8445 17.8823H10.8477C10.6986 17.8895 10.5961 17.9937 10.5898 18.1482C10.5836 18.2955 10.6706 18.4248 10.8135 18.432C10.8166 18.4322 10.8197 18.4324 10.8228 18.4326L10.8104 18.432C10.6675 18.4248 10.5805 18.2955 10.5867 18.1482C10.593 17.9937 10.6955 17.8895 10.8445 17.8823ZM11.1911 17.8821L10.8601 17.8823H11.1489C11.163 17.8823 11.177 17.8822 11.1911 17.8821Z" fill="white"/>
<path fill-rule="evenodd" clip-rule="evenodd" d="M10.0618 9.76996H10.0649C9.90341 9.76637 9.78849 9.6514 9.78538 9.49691C9.78227 9.34243 9.88477 9.21668 10.0401 9.21309C10.2741 9.20951 10.5081 9.20771 10.742 9.2077C10.507 9.20769 10.272 9.20949 10.037 9.21309C9.88167 9.21309 9.77917 9.34243 9.78227 9.49691C9.78849 9.65499 9.90341 9.76996 10.0618 9.76996ZM11.4192 9.76996H10.7358C10.8113 9.76996 10.8871 9.77036 10.963 9.77076C11.1152 9.77156 11.2679 9.77236 11.4192 9.76996Z" fill="white"/>
<path fill-rule="evenodd" clip-rule="evenodd" d="M11.1419 6.5428C11.2503 6.54279 11.3584 6.54549 11.4658 6.55088C11.3577 6.54553 11.2496 6.54283 11.1419 6.5428ZM11.6925 6.84549C11.6986 6.6858 11.6169 6.56117 11.4712 6.5512C11.617 6.56117 11.7017 6.6858 11.6925 6.84549Z" fill="white"/>
<path d="M19.7619 21.572C20.2092 21.5792 20.6378 21.4894 21.0509 21.2918C22.3275 20.6739 23.0916 19.1901 22.9611 17.6344C22.8182 15.9494 21.7964 14.6704 20.3862 14.3758C19.7805 14.2501 19.1904 14.3291 18.6189 14.6022C18.476 14.6704 18.3579 14.6381 18.2927 14.5159C18.2058 14.3543 18.2617 14.1782 18.4325 14.0956C18.945 13.8477 19.4792 13.7184 20.0321 13.7723C21.3584 13.8944 22.3617 14.6201 23.017 15.9674C23.0854 16.1075 23.1382 16.2548 23.2003 16.4021C23.8992 16.1039 24.7409 15.1267 24.949 13.7974C25.1944 12.231 24.5173 10.8442 23.7097 10.2262C23.5979 10.3448 23.4923 10.4598 23.3804 10.5711C22.2188 11.7388 20.9204 12.0082 19.4854 11.3615C19.4109 11.3292 19.3364 11.2466 19.296 11.1639C19.2494 11.0705 19.2804 10.9592 19.3519 10.8837C19.4295 10.7975 19.5196 10.7939 19.6221 10.8298C19.8861 10.9268 20.1501 11.0454 20.4235 11.0993C21.9951 11.4118 23.5482 10.2334 23.9457 8.43706C24.4054 6.34969 23.2189 4.26232 21.3864 3.93898C20.8583 3.84557 20.3427 3.90664 19.8395 4.11502C19.7464 4.15454 19.7091 4.20843 19.6936 4.31981C19.4948 5.61318 18.8953 6.58681 17.9231 7.25506C17.3858 7.62511 16.7925 7.79037 16.1713 7.80834C16.0129 7.81193 15.898 7.69337 15.8948 7.5317C15.8917 7.36643 16.0067 7.25146 16.1744 7.24787C17.628 7.21554 18.8425 6.09461 19.1842 4.46711C19.6252 2.35818 18.3548 0.263625 16.4912 0.0229129C14.7363 -0.203428 13.1677 1.27318 13.0124 3.29947C13.0031 3.40366 13.0031 3.50426 13.0031 3.60845C13.0031 9.4538 13.0062 15.3028 13 21.1481C13 21.7732 13.059 22.3768 13.3044 22.9373C13.8883 24.2522 14.8202 24.9743 16.0998 24.9995C17.6342 25.0282 18.8984 23.8175 19.209 22.0822C19.56 20.1098 18.3921 18.1338 16.6869 17.8033C16.5161 17.7709 16.339 17.7602 16.1651 17.7494C16.0036 17.7386 15.8917 17.6308 15.8917 17.4692C15.8917 17.3039 16.0129 17.1853 16.1744 17.1889C17.948 17.232 19.4295 18.7194 19.6998 20.7421C19.7401 21.008 19.7433 21.281 19.7619 21.572ZM14.7642 12.7663C14.3636 12.7663 13.966 12.7663 13.5653 12.7663C13.4038 12.7663 13.3044 12.6621 13.3044 12.4968C13.3043 12.4936 13.3043 12.4904 13.3043 12.4872C13.305 12.3205 13.4038 12.2202 13.5684 12.2202C14.3605 12.2202 15.1494 12.2202 15.9414 12.2202C16.1092 12.2202 16.2148 12.3244 16.2179 12.4897C16.2179 12.4914 16.2179 12.4932 16.2179 12.495C16.2187 12.6608 16.1104 12.7699 15.9383 12.7699C15.547 12.7663 15.1556 12.7663 14.7642 12.7663ZM14.2642 9.76996C14.0343 9.76996 13.8076 9.76996 13.5777 9.76996C13.4162 9.76996 13.3106 9.66936 13.3044 9.51128C13.2982 9.33883 13.3883 9.21668 13.5529 9.21309C13.7879 9.20949 14.0229 9.20769 14.258 9.2077C14.4919 9.20771 14.7259 9.20951 14.9599 9.21309C15.1152 9.21668 15.2177 9.34243 15.2146 9.49691C15.2115 9.6514 15.0966 9.76637 14.9351 9.76996C14.7145 9.77355 14.4878 9.76996 14.2642 9.76996ZM14.2611 15.2165C14.4847 15.2165 14.7114 15.2165 14.9351 15.2165C15.0966 15.2165 15.2115 15.3279 15.2177 15.4824C15.2239 15.6405 15.1183 15.7698 14.9537 15.7734C14.4878 15.7806 14.025 15.7806 13.5591 15.7734C13.3945 15.7698 13.2982 15.6476 13.3044 15.4788C13.3106 15.3207 13.4131 15.2165 13.5746 15.2165C13.8045 15.2129 14.0312 15.2165 14.2611 15.2165ZM13.8573 7.10416C13.7579 7.10416 13.6554 7.10776 13.556 7.10416C13.4131 7.10057 13.3137 6.99279 13.3075 6.84549C13.3014 6.6858 13.3831 6.56117 13.5288 6.5512C13.5306 6.55108 13.5324 6.55097 13.5342 6.55088C13.7517 6.54011 13.9691 6.54011 14.1834 6.55088C14.3232 6.55807 14.4164 6.68741 14.4133 6.83471C14.4102 6.9892 14.3077 7.10057 14.1586 7.10416C14.0592 7.10776 13.9567 7.10416 13.8573 7.10416ZM13.8511 17.8823C13.9473 17.8823 14.0436 17.8823 14.1399 17.8823C14.143 17.8823 14.1461 17.8823 14.1523 17.8823C14.3014 17.8895 14.4039 17.9937 14.4102 18.1482C14.4164 18.2955 14.3294 18.4248 14.1865 18.432C14.1834 18.4322 14.1803 18.4324 14.1772 18.4326C13.9598 18.4464 13.7424 18.4462 13.5249 18.432C13.5195 18.4316 13.5142 18.4311 13.5089 18.4304C13.4853 18.4273 13.4636 18.4211 13.4438 18.4124C13.3471 18.3695 13.2969 18.2631 13.3044 18.1338C13.3137 17.9865 13.4131 17.8859 13.5591 17.8823C13.5928 17.8811 13.6261 17.8807 13.6593 17.8807C13.7035 17.8807 13.7474 17.8815 13.7911 17.882C13.7945 17.882 13.798 17.882 13.8015 17.8821C13.804 17.8821 13.8064 17.8821 13.8089 17.8821C13.823 17.8822 13.837 17.8823 13.8511 17.8823Z" fill="#0870F3"/>
<path fill-rule="evenodd" clip-rule="evenodd" d="M13.3044 15.4788C13.2982 15.6476 13.3914 15.7698 13.5591 15.7734C13.3945 15.7698 13.2982 15.6476 13.3044 15.4788ZM15.2177 15.4824C15.2115 15.3243 15.0966 15.2165 14.9351 15.2165C15.0966 15.2165 15.2115 15.3279 15.2177 15.4824ZM14.2611 15.2165H14.9351C14.7859 15.2141 14.6353 15.2149 14.4852 15.2157C14.4103 15.2161 14.3355 15.2165 14.2611 15.2165Z" fill="white"/>
<path fill-rule="evenodd" clip-rule="evenodd" d="M13.3043 12.4872C13.3036 12.3184 13.4027 12.2166 13.5684 12.2166H15.9414C16.1092 12.2166 16.2148 12.3244 16.2179 12.4861C16.2179 12.489 16.218 12.492 16.2179 12.495C16.2179 12.4932 16.2179 12.4914 16.2179 12.4897C16.2148 12.3244 16.1092 12.2202 15.9414 12.2202H13.5684C13.4038 12.2202 13.305 12.3205 13.3043 12.4872Z" fill="white"/>
<path fill-rule="evenodd" clip-rule="evenodd" d="M14.1555 17.8823H14.1523C14.3014 17.8895 14.4039 17.9937 14.4102 18.1482C14.4164 18.2955 14.3294 18.4248 14.1865 18.432C14.1834 18.4322 14.1803 18.4324 14.1772 18.4326L14.1896 18.432C14.3325 18.4248 14.4195 18.2955 14.4133 18.1482C14.407 17.9937 14.3045 17.8895 14.1555 17.8823ZM13.8089 17.8821L14.1399 17.8823H13.8511C13.837 17.8823 13.823 17.8822 13.8089 17.8821Z" fill="white"/>
<path fill-rule="evenodd" clip-rule="evenodd" d="M14.9382 9.76996H14.9351C15.0966 9.76637 15.2115 9.6514 15.2146 9.49691C15.2177 9.34243 15.1152 9.21668 14.9599 9.21309C14.7259 9.20951 14.4919 9.20771 14.258 9.2077C14.493 9.20769 14.728 9.20949 14.963 9.21309C15.1183 9.21309 15.2208 9.34243 15.2177 9.49691C15.2115 9.65499 15.0966 9.76996 14.9382 9.76996ZM13.5808 9.76996H14.2642C14.1887 9.76996 14.1129 9.77036 14.037 9.77076C13.8848 9.77156 13.7321 9.77236 13.5808 9.76996Z" fill="white"/>
<path fill-rule="evenodd" clip-rule="evenodd" d="M13.8581 6.5428C13.7497 6.54279 13.6416 6.54549 13.5342 6.55088C13.6423 6.54553 13.7504 6.54283 13.8581 6.5428ZM13.3075 6.84549C13.3014 6.6858 13.3831 6.56117 13.5288 6.5512C13.383 6.56117 13.2983 6.6858 13.3075 6.84549Z" fill="white"/>
</svg>
