<svg width="811" height="1080" viewBox="0 0 811 1080" fill="none" xmlns="http://www.w3.org/2000/svg">
<path d="M721.235 -237.72C799.313 -94.5576 856.91 72.1775 724.718 210.836C592.527 349.494 423.284 175.619 449.89 55.1762C462.441 -1.64302 506.925 -52.4516 558.968 -51.1733C660.427 -48.6813 683.7 97.7555 556.736 210.194C467.478 289.241 281.37 261.964 230.951 393.845C172.808 545.931 410.508 934.215 592.248 927.949C677.566 925.008 735.024 872.743 731.717 805.162C727.366 716.242 646.373 652.033 562.242 626.049C413.467 580.1 236.088 648.989 154.369 767.524C51.012 917.448 7.4031 1187.18 7.4031 1187.18" stroke="#DCFF5C" stroke-width="15"/>
</svg>
