<svg width="1034" height="592" viewBox="0 0 1034 592" fill="none" xmlns="http://www.w3.org/2000/svg">
<path d="M1153.78 1.45532C1188.23 175.604 1172.48 396.256 1020.73 456.863C868.979 517.471 784.498 384.627 791.117 270.892C795.572 194.344 854.652 128.563 920.35 154.094C986.048 179.624 1014.16 327.036 853.06 393.359C739.804 439.985 562.133 342.735 471.606 457.382C367.211 589.592 439.773 914.552 623.291 976.211C709.443 1005.16 782.769 973.745 800.036 904.09C822.754 812.442 727.56 713.792 649.839 707.907C506.105 697.023 399.076 717.603 281.335 807.028C132.416 920.132 6.73375 1176.88 6.73375 1176.88" stroke="#DCFF5C" stroke-width="15"/>
</svg>
