<svg width="1179" height="896" viewBox="0 0 1179 896" fill="none" xmlns="http://www.w3.org/2000/svg">
<path d="M7.46214 925.978C23.6667 763.715 70.0767 593.526 257.425 553.508C444.773 513.49 486.558 752.508 396.691 836.997C354.296 876.854 288.913 893.748 246.646 863.356C164.246 804.108 227.565 670.033 395.816 648.726C514.1 633.746 652.449 761.181 768.433 680.668C902.186 587.82 924.713 133.113 771.064 35.8454C698.934 -9.81644 622.013 0.966013 586.651 58.6522C540.123 134.553 570.83 233.242 625.676 302.128C722.663 423.942 908.008 467.025 1042.32 415.178C1212.2 349.601 1400.27 151.384 1400.27 151.384" stroke="#DCFF5C" stroke-width="15"/>
</svg>
