<svg preserveAspectRatio="xMidYMid meet" viewBox="0 0 360 49" fill="none" xmlns="http://www.w3.org/2000/svg">
<path d="M3.13215 21.9664L14.1387 11.1447H11.0065L0 21.9664H3.13215Z" data-count="one" fill="#0870F3"/>
<path d="M10.2507 21.9664L21.2572 11.1447H18.125L7.11851 21.9664H10.2507Z" data-count="two" fill="#0870F3"/>
<path fill-rule="evenodd" clip-rule="evenodd" d="M28.6604 11.1447H25.5283L14.5218 21.9664H17.6539L28.6604 11.1447Z" data-count="three" fill="#0870F3"/>
<path d="M141.312 11.1447H113.508H32.4362L21.4297 21.9664H113.508H141.312L141.313 24.5778C141.313 24.8113 141.567 24.9556 141.767 24.8354L155.09 16.8226C155.284 16.7059 155.284 16.424 155.09 16.3073L141.767 8.2945C141.567 8.17435 141.313 8.31859 141.313 8.55212L141.312 11.1447Z" fill="#0870F3"/>
<path d="M92.6022 4.00439H83.7949V11.1239H92.6022V4.00439Z" date-buk="true" fill="white"/>
<rect x="169.617" y="4.00439" width="1.16581" height="40.9005" data-alf='line' fill="#C8C7C7"/>

<path fill-rule="evenodd" clip-rule="evenodd" d="M83.7949 26.991H92.6022V21.9457H83.7949V26.991Z" date-buk="true" fill="white"/>
<path d="M83.7963 40.1717H55.1016V4.00439H64.193V32.0364H83.7963H92.6036V40.1717V43.5891V49L87.2056 43.5891L83.7963 40.1717Z" date-buk="true" fill="white"/>
<path d="M39.3179 4.03418L3.23633 40.2015H13.7483L24.8284 29.095H42.1589V32.0662V40.2015H51.2503V27.1015V21.9754H42.1589H31.647L42.443 11.1537H51.2503V4.03418H39.3179Z" date-buk="true" fill="white"/>
<path d="M106.651 40.2015H97.2754V21.9754H120.572C123.553 21.9754 125.97 19.5529 125.97 16.5646C125.97 13.5763 123.553 11.1537 120.572 11.1537H97.2754V4.03418H122.703C129.685 4.03418 135.346 9.70799 135.346 16.707C135.346 23.706 129.685 29.3798 122.703 29.3798H106.651V40.2015Z"  date-buk="true" fill="white"/>
<path d="M196.881 13.3838L195.381 10.4974H187.849L186.348 13.3838H185.166L190.774 2.74968H192.486L198.094 13.3838H196.881ZM188.318 9.6011H194.911L191.607 3.29658L188.318 9.6011Z" data-alf="1" date-buk="true" fill="white"/>
<path d="M209.95 2.74968H211.101V13.3838H209.95V8.44654H201.174V13.3838H200.023V2.74968H201.174V7.50466H209.95V2.74968Z" data-alf="2" date-buk="true" fill="white"/>
<path d="M224.75 13.3838L223.25 10.4974H215.718L214.217 13.3838H213.035L218.643 2.74968H220.355L225.963 13.3838H224.75ZM216.187 9.6011H222.78L219.476 3.29658L216.187 9.6011Z" data-alf="3" date-buk="true" fill="white"/>
<path d="M229.695 2.74968H238.789V13.3838H237.637V3.70675H230.726C230.706 4.18276 230.675 4.85119 230.635 5.71205C230.584 6.80584 230.544 7.60087 230.514 8.09713C230.483 8.59339 230.428 9.21625 230.347 9.9657C230.266 10.705 230.165 11.2317 230.044 11.5456C229.923 11.8596 229.756 12.1989 229.544 12.5635C229.342 12.9281 229.084 13.1711 228.771 13.2927C228.468 13.4142 228.104 13.475 227.68 13.475C227.346 13.475 227.023 13.4547 226.71 13.4142V12.4723C226.993 12.5027 227.225 12.5179 227.407 12.5179C228.286 12.5179 228.841 12.0014 229.074 10.9683C229.316 9.93532 229.488 8.02624 229.589 5.24111C229.609 4.88664 229.619 4.61319 229.619 4.42076C229.63 4.21821 229.64 3.95995 229.65 3.64599C229.67 3.3219 229.685 3.02313 229.695 2.74968Z" data-alf="4" date-buk="true" fill="white"/>
<path d="M251.426 2.74968H253.185V13.3838H252.048V3.49407L243.637 13.3838H241.863V2.74968H243V12.6394L251.426 2.74968Z" data-alf="5" date-buk="true" fill="white"/>
<path d="M255.188 3.70675V2.74968H265.979V3.70675H261.159V13.3838H260.008V3.70675H255.188Z" data-alf="6" date-buk="true" fill="white"/>
<path d="M277.534 2.74968H279.292V13.3838H278.156V3.49407L269.744 13.3838H267.971V2.74968H269.108V12.6394L277.534 2.74968Z" data-alf="7" date-buk="true" fill="white"/>
<path d="M291.283 2.74968H292.435V13.3838H291.283V8.64403C289.798 8.98837 288.273 9.16055 286.706 9.16055C285.1 9.16055 283.903 8.90229 283.115 8.38577C282.337 7.85913 281.948 7.04891 281.948 5.95511V2.74968H283.099V5.75762C283.099 6.63874 283.413 7.27172 284.039 7.65658C284.665 8.0313 285.666 8.21867 287.04 8.21867C288.545 8.21867 289.96 8.03637 291.283 7.67177V2.74968Z" data-alf="8" date-buk="true" fill="white"/>
<path d="M295.515 13.3838V2.74968H304.941V3.67637H296.667V7.53504H303.259V8.41616H296.667V12.4571H305.245V13.3838H295.515Z" data-alf="9" date-buk="true" fill="white"/>
<path d="M316.902 9.85936L317.994 9.93532C317.812 11.019 317.236 11.895 316.266 12.5635C315.296 13.2319 313.988 13.5661 312.341 13.5661C310.33 13.5661 308.774 13.0547 307.673 12.0318C306.571 11.0089 306.021 9.68719 306.021 8.06675C306.021 6.44631 306.561 5.12464 307.642 4.10174C308.723 3.07883 310.244 2.56738 312.204 2.56738C313.74 2.56738 315.018 2.87628 316.039 3.49407C317.069 4.11186 317.685 4.9474 317.888 6.00069L316.796 6.09184C316.635 5.312 316.124 4.68915 315.266 4.22327C314.417 3.74727 313.396 3.50926 312.204 3.50926C310.628 3.50926 309.395 3.93969 308.506 4.80055C307.617 5.66141 307.173 6.75014 307.173 8.06675C307.173 9.38336 307.622 10.4721 308.521 11.3329C309.431 12.1938 310.704 12.6242 312.341 12.6242C313.624 12.6242 314.664 12.366 315.463 11.8495C316.271 11.3228 316.751 10.6595 316.902 9.85936Z" data-alf="10" date-buk="true" fill="white"/>
<path d="M331.615 13.3838H330.054L324.507 8.44654H321.324V13.3838H320.172V2.74968H321.324V7.55023H324.507L329.766 2.74968H331.205L325.446 7.91483L331.615 13.3838Z" data-alf="11" date-buk="true" fill="white"/>
<path d="M343.174 2.74968H344.932V13.3838H343.795V3.49407L335.384 13.3838H333.611V2.74968H334.748V12.6394L343.174 2.74968Z" data-alf="12" date-buk="true" fill="white"/>
<path d="M353.68 1.83819C351.891 1.83819 350.962 1.22546 350.891 0H351.694C351.806 0.779837 352.467 1.16975 353.68 1.16975C354.902 1.16975 355.569 0.779837 355.68 0H356.484C356.413 1.22546 355.478 1.83819 353.68 1.83819ZM357.575 2.74968H359.333V13.3838H358.196V3.49407L349.785 13.3838H348.012V2.74968H349.148V12.6394L357.575 2.74968Z" data-alf="13" date-buk="true" fill="white"/>
<path d="M186.303 27.4068V16.7727H187.455V26.4498H196.139V16.7727H197.29V26.4498H198.533V29.9135H197.488V27.4068H186.303Z" data-alf="14" date-buk="true" fill="white"/>
<path d="M200.378 27.4068V16.7727H209.805V17.6994H201.53V21.5581H208.122V22.4392H201.53V26.4802H210.108V27.4068H200.378Z" data-alf="15" date-buk="true" fill="white"/>
<path d="M222.337 16.7727H223.489V27.4068H222.337V22.4696H213.562V27.4068H212.411V16.7727H213.562V21.5277H222.337V16.7727Z" data-alf="16" date-buk="true" fill="white"/>
<path d="M225.484 17.7298V16.7727H236.274V17.7298H231.455V27.4068H230.303V17.7298H225.484Z" data-alf="18" date-buk="true" fill="white"/>
<path d="M245.026 16.7727C246.158 16.7727 247.052 17.0512 247.709 17.6083C248.365 18.1552 248.694 18.935 248.694 19.9478C248.694 20.9707 248.365 21.7505 247.709 22.2873C247.062 22.824 246.168 23.0924 245.026 23.0924H239.419V27.4068H238.267V16.7727H245.026ZM244.95 22.1809C245.749 22.1809 246.38 21.9885 246.845 21.6036C247.31 21.2188 247.542 20.6668 247.542 19.9478C247.542 19.2287 247.31 18.6818 246.845 18.3071C246.38 17.9222 245.749 17.7298 244.95 17.7298H239.419V22.1809H244.95Z" data-alf="19" date-buk="true" fill="white"/>
<path d="M193.062 30.7957C194.194 30.7957 195.088 31.0743 195.745 31.6313C196.401 32.1782 196.73 32.958 196.73 33.9708C196.73 34.9937 196.401 35.7735 195.745 36.3103C195.098 36.8471 194.204 37.1155 193.062 37.1155H187.455V41.4299H186.303V30.7957H193.062ZM192.986 36.204C193.784 36.204 194.416 36.0115 194.881 35.6267C195.346 35.2418 195.578 34.6899 195.578 33.9708C195.578 33.2517 195.346 32.7048 194.881 32.3301C194.416 31.9452 193.784 31.7528 192.986 31.7528H187.455V36.204H192.986Z" data-alf="20" date-buk="true" fill="white"/>
<path d="M207.908 41.4299L206.407 38.5435H198.875L197.374 41.4299H196.192L201.8 30.7957H203.512L209.12 41.4299H207.908ZM199.345 37.6472H205.937L202.633 31.3426L199.345 37.6472Z" data-alf="21" date-buk="true" fill="white"/>
<path d="M216.859 35.9913C218.112 36.0824 219.067 36.3609 219.723 36.8268C220.38 37.2826 220.708 37.9054 220.708 38.6954C220.708 39.6373 220.249 40.3614 219.329 40.8678C218.41 41.364 217.111 41.6122 215.434 41.6122C211.999 41.6122 210.15 40.5234 209.887 38.346L210.948 38.3004C211.049 39.0802 211.479 39.6778 212.236 40.093C213.004 40.4981 214.07 40.7007 215.434 40.7007C216.717 40.7007 217.723 40.5234 218.45 40.169C219.188 39.8044 219.557 39.2727 219.557 38.5738C219.557 37.8953 219.203 37.3737 218.496 37.0091C217.798 36.6445 216.798 36.4622 215.495 36.4622H213.343V35.5811H215.616C216.748 35.5811 217.627 35.4039 218.253 35.0494C218.88 34.6949 219.193 34.2037 219.193 33.5758C219.193 32.9175 218.859 32.4111 218.193 32.0566C217.526 31.7022 216.626 31.5249 215.495 31.5249C214.333 31.5249 213.358 31.7123 212.57 32.087C211.792 32.4516 211.352 33.0087 211.251 33.7581L210.175 33.6973C210.307 32.6744 210.857 31.9047 211.827 31.3882C212.797 30.8717 214.02 30.6134 215.495 30.6134C216.98 30.6134 218.157 30.8565 219.026 31.3426C219.905 31.8186 220.345 32.4972 220.345 33.3783C220.345 34.1176 220.047 34.7152 219.45 35.1709C218.864 35.6166 218.001 35.89 216.859 35.9913Z" data-alf="22" date-buk="true" fill="white"/>
<path d="M230.948 35.9761C231.897 36.0672 232.635 36.3356 233.16 36.7812C233.686 37.2269 233.949 37.8396 233.949 38.6194C233.949 39.5107 233.6 40.2044 232.903 40.7007C232.216 41.1868 231.256 41.4299 230.023 41.4299H223.067V30.7957H230.038C231.089 30.7957 231.938 31.0439 232.585 31.5401C233.241 32.0364 233.57 32.6947 233.57 33.515C233.57 34.1936 233.327 34.7456 232.842 35.1709C232.357 35.5963 231.726 35.8647 230.948 35.9761ZM224.219 31.7072V35.5811H229.978C230.665 35.5811 231.241 35.4089 231.706 35.0646C232.18 34.7101 232.418 34.2341 232.418 33.6366C232.418 33.0289 232.185 32.558 231.721 32.2238C231.256 31.8794 230.675 31.7072 229.978 31.7072H224.219ZM229.902 40.5184C230.801 40.5184 231.508 40.3513 232.024 40.0171C232.539 39.6828 232.797 39.1663 232.797 38.4675C232.797 37.1408 231.882 36.4774 230.054 36.4774H224.219V40.5184H229.902Z" data-alf="23" date-buk="true" fill="white"/>
<path d="M245.876 30.7957H247.634V41.4299H246.498V31.5401L238.086 41.4299H236.313V30.7957H237.45V40.6855L245.876 30.7957Z" data-alf="24" date-buk="true" fill="white"/>
<path d="M249.638 31.7528V30.7957H260.429V31.7528H255.609V41.4299H254.457V31.7528H249.638Z" data-alf="25" date-buk="true" fill="white"/>
<path d="M271.984 30.7957H273.742V41.4299H272.606V31.5401L264.194 41.4299H262.421V30.7957H263.558V40.6855L271.984 30.7957Z" data-alf="26" date-buk="true" fill="white"/>
<path d="M276.822 41.4299V30.7957H286.249V31.7224H277.974V35.5811H284.566V36.4622H277.974V40.5032H286.552V41.4299H276.822Z" data-alf="27" date-buk="true" fill="white"/>
</svg>
