<svg width="45" height="45" viewBox="0 0 45 45" fill="none" xmlns="http://www.w3.org/2000/svg">
  <g clip-path="url(#clip0_4035_10184)">
    <path fill-rule="evenodd" clip-rule="evenodd" d="M31.7002 12.4004C33.2855 12.4005 34.5996 13.6535 34.5996 15.2354V20.8232C34.5996 22.4051 33.2855 23.6591 31.7002 23.6592H13.2998C11.7145 23.6591 10.4004 22.4051 10.4004 20.8232V15.2354C10.4004 13.6535 11.7145 12.4005 13.2998 12.4004H31.7002ZM13.2998 13.5996C12.3448 13.5997 11.5996 14.3483 11.5996 15.2354V20.8232C11.5996 21.7103 12.3448 22.4589 13.2998 22.459H31.7002C32.6552 22.4589 33.4004 21.7103 33.4004 20.8232V15.2354C33.4004 14.3483 32.6552 13.5997 31.7002 13.5996H13.2998Z" fill="#282631" />
    <path fill-rule="evenodd" clip-rule="evenodd" d="M5 0C2.23858 0 0 2.23858 0 5V40C0 42.7614 2.23858 45 5 45H40C42.7614 45 45 42.7614 45 40V5C45 2.23858 42.7614 0 40 0H5ZM11.5996 15.2354C11.5996 14.3483 12.3448 13.5997 13.2998 13.5996H31.7002C32.6552 13.5997 33.4004 14.3483 33.4004 15.2354V20.8232C33.4004 21.7103 32.6552 22.4589 31.7002 22.459H13.2998C12.3448 22.4589 11.5996 21.7103 11.5996 20.8232V15.2354ZM15.0498 25.2939C15.0498 26.1811 15.7949 26.9297 16.75 26.9297H28.25C29.2052 26.9297 29.9502 26.1811 29.9502 25.2939H31.1504C31.1504 26.8759 29.8354 28.1299 28.25 28.1299H16.75C15.1646 28.1299 13.8496 26.8759 13.8496 25.2939H15.0498ZM20.2002 31.4004C19.245 31.4004 18.5 30.6518 18.5 29.7646H17.2998C17.2998 31.3466 18.6148 32.5996 20.2002 32.5996H24.7998C26.3852 32.5996 27.7002 31.3466 27.7002 29.7646H26.5C26.5 30.6518 25.755 31.4004 24.7998 31.4004H20.2002Z" data-it="true" fill="white" />
      <path d="M13.2998 13.5996C12.3448 13.5997 11.5996 14.3483 11.5996 15.2354V20.8232C11.5996 21.7103 12.3448 22.4589 13.2998 22.459H31.7002C32.6552 22.4589 33.4004 21.7103 33.4004 20.8232V15.2354C33.4004 14.3483 32.6552 13.5997 31.7002 13.5996H13.2998Z" data-fon="true" fill="#282631" />
  <path d="M15.0498 25.2939C15.0498 26.1811 15.7949 26.9297 16.75 26.9297H28.25C29.2052 26.9297 29.9502 26.1811 29.9502 25.2939H31.1504C31.1504 26.8759 29.8354 28.1299 28.25 28.1299H16.75C15.1646 28.1299 13.8496 26.8759 13.8496 25.2939H15.0498Z" data-fon="true" fill="#282631" />
  <path d="M18.5 29.7646C18.5 30.6518 19.245 31.4004 20.2002 31.4004H24.7998C25.755 31.4004 26.5 30.6518 26.5 29.7646H27.7002C27.7002 31.3466 26.3852 32.5996 24.7998 32.5996H20.2002C18.6148 32.5996 17.2998 31.3466 17.2998 29.7646H18.5Z" data-fon="true" fill="#282631" />

    <circle cx="22.5" cy="17.5" r="1.5" fill="#A8D307" />
  </g>
  <defs>
    <clipPath id="clip0_4035_10184">
      <rect width="45" height="45" data-it="true" fill="white" />
    </clipPath>
  </defs>
</svg>

