<svg width="77" height="77" viewBox="0 0 77 77" fill="none" xmlns="http://www.w3.org/2000/svg">
<g clip-path="url(#clip0_3585_10463)">
<path fill-rule="evenodd" clip-rule="evenodd" d="M8.58976 -0.307861C3.84577 -0.307861 0 3.5379 0 8.28189V68.4102C0 73.1542 3.84576 76.9999 8.58976 76.9999H68.718C73.462 76.9999 77.3078 73.1542 77.3078 68.4102V8.28189C77.3078 3.5379 73.462 -0.307861 68.718 -0.307861H8.58976ZM52.5598 20.4451C54.1981 19.9566 55.0132 20.7391 54.973 23.278C54.9057 23.8279 54.8342 24.4222 54.759 25.0477C54.579 26.544 54.3775 28.2189 54.1606 29.8904C53.1788 37.4621 52.1891 45.0323 51.1927 52.6009C51.1802 52.6962 51.1682 52.7916 51.1562 52.8872C51.0648 53.6155 50.9729 54.3477 50.669 55.0165C50.1842 56.0847 49.4323 56.5393 48.4371 56.3379C47.2903 56.1059 46.2563 55.5247 45.3054 54.7535C44.4658 54.0723 43.6202 53.4012 42.7745 52.7301C40.4823 50.9109 38.1895 49.0913 36.0127 47.0681C35.7481 46.8214 35.4902 46.5583 35.2566 46.2709C34.5275 45.3716 34.4885 44.2742 35.2351 43.4056C36.4501 41.9904 37.6764 40.5899 38.9027 39.1895C39.8682 38.0869 40.8337 36.9843 41.7938 35.8744C42.9436 34.5429 44.0739 33.1866 45.2037 31.8309C45.2944 31.722 45.3852 31.613 45.476 31.5041C45.7634 31.16 45.9474 30.7168 46.1125 30.2735C46.2146 30.0024 46.3032 29.7037 46.1086 29.4359C45.9125 29.1663 45.6628 29.241 45.4224 29.3239C44.5911 29.6078 43.8807 30.1777 43.1757 30.7492C42.1112 31.6129 41.0447 32.4732 39.9782 33.3335C36.8992 35.8172 33.82 38.301 30.7889 40.8681C29.2043 42.2092 27.5915 42.4332 25.8336 41.8812C23.7561 41.2286 21.7284 40.3713 19.7047 39.511C18.7512 39.1067 18.6263 37.954 19.4159 37.1634C20.0165 36.5629 20.7312 36.2221 21.4425 35.883C21.6042 35.8059 21.7658 35.7288 21.9258 35.6488C31.8035 30.7104 41.685 25.7851 51.5667 20.8597L51.734 20.7764C52.0011 20.6432 52.2791 20.5295 52.5598 20.4451Z" fill="#0870F3"/>
</g>
<defs>
<clipPath id="clip0_3585_10463">
<rect width="77" height="77" rx="8.58976" fill="white"/>
</clipPath>
</defs>
</svg>
